<?xml version="1.0" encoding="UTF-8" standalone="no"?>
<svg
   xmlns:dc="http://purl.org/dc/elements/1.1/"
   xmlns:cc="http://creativecommons.org/ns#"
   xmlns:rdf="http://www.w3.org/1999/02/22-rdf-syntax-ns#"
   xmlns:svg="http://www.w3.org/2000/svg"
   xmlns="http://www.w3.org/2000/svg"
   xmlns:sodipodi="http://sodipodi.sourceforge.net/DTD/sodipodi-0.dtd"
   xmlns:inkscape="http://www.inkscape.org/namespaces/inkscape"
   width="16"
   viewBox="0 0 16 16"
   height="16"
   id="svg4310"
   version="1.1"
   inkscape:version="0.91 r13725"
   sodipodi:docname="shutdown.svg">
  <metadata
     id="metadata4322">
    <rdf:RDF>
      <cc:Work
         rdf:about="">
        <dc:format>image/svg+xml</dc:format>
        <dc:type
           rdf:resource="http://purl.org/dc/dcmitype/StillImage" />
        <dc:title></dc:title>
      </cc:Work>
    </rdf:RDF>
  </metadata>
  <sodipodi:namedview
     pagecolor="#ffffff"
     bordercolor="#666666"
     borderopacity="1"
     objecttolerance="10"
     gridtolerance="10"
     guidetolerance="10"
     inkscape:pageopacity="0"
     inkscape:pageshadow="2"
     inkscape:window-width="1600"
     inkscape:window-height="882"
     id="namedview4320"
     showgrid="false"
     inkscape:zoom="11.313709"
     inkscape:cx="0.11494684"
     inkscape:cy="0.7780831"
     inkscape:window-x="0"
     inkscape:window-y="18"
     inkscape:window-maximized="0"
     inkscape:current-layer="svg4310"
     fit-margin-top="0"
     fit-margin-left="0"
     fit-margin-right="0"
     fit-margin-bottom="0" />
  <defs
     id="defs4312" />
  <g
     style="fill:#dc322f;fill-opacity:1"
     id="g4314"
     transform="matrix(0.99,0,0,0.99,0.08838834,0.12906154)">
    <path
       style="color:#000000;line-height:normal;fill:#dc322f;fill-opacity:1"
       d="M 5.5,0.375 C 2.2983821,1.4340727 0,4.4774601 0,8 c 0,4.389595 3.5803783,8.03125 8,8.03125 4.419622,0 8,-3.641655 8,-8.03125 0,-3.5219879 -2.299024,-6.5653698 -5.5,-7.625 l 0,2.15625 C 12.541964,3.493202 14,5.5609693 14,8 14,11.367034 11.30958,14.0625 8,14.0625 4.6904203,14.0625 2,11.367034 2,8 2,5.5408408 3.4437776,3.4523957 5.5,2.5 l 0,-2.125 z"
       id="path4316"
       inkscape:connector-curvature="0" />
    <rect
       width="2"
       x="-9"
       y="0.024"
       rx="0.83700001"
       ry="0"
       height="8"
       transform="scale(-1,1)"
       id="rect4318"
       style="fill:#dc322f;fill-opacity:1" />
  </g>
</svg>
